<svg viewBox="0 0 800 800" xmlns="http://www.w3.org/2000/svg" width="800" height="800">
  <rect width="800" height="800" fill="#000000"/>
  <g transform="translate(160,160) scale(1.0)" fill="none">
    <g stroke="#ffffff" stroke-linecap="round" stroke-linejoin="round">
      <circle cx="240" cy="240" r="216" stroke-width="3" opacity="0.55"/>
      <circle cx="240" cy="240" r="206" stroke-width="1.5" opacity="0.30"/>
      <line x1="66" y1="212" x2="414" y2="212" stroke-width="3" opacity="0.6"/>
      <circle cx="240" cy="212" r="40" stroke-width="5"/>
      <circle cx="240" cy="212" r="9" fill="#ffffff" stroke="none"/>
      <rect x="80" y="180" width="118" height="64" rx="9" stroke-width="5"/>
      <g stroke-width="3" opacity="0.85">
        <line x1="100" y1="180" x2="100" y2="244"/><line x1="118" y1="180" x2="118" y2="244"/>
        <line x1="136" y1="180" x2="136" y2="244"/><line x1="154" y1="180" x2="154" y2="244"/>
        <line x1="172" y1="180" x2="172" y2="244"/>
      </g>
      <rect x="66" y="192" width="18" height="40" rx="5" stroke-width="5"/>
      <rect x="282" y="180" width="118" height="64" rx="9" stroke-width="5"/>
      <g stroke-width="3" opacity="0.85">
        <line x1="308" y1="180" x2="308" y2="244"/><line x1="326" y1="180" x2="326" y2="244"/>
        <line x1="344" y1="180" x2="344" y2="244"/><line x1="362" y1="180" x2="362" y2="244"/>
        <line x1="380" y1="180" x2="380" y2="244"/>
      </g>
      <rect x="396" y="192" width="18" height="40" rx="5" stroke-width="5"/>
    </g>
    <text x="240" y="330" text-anchor="middle" fill="#ffffff"
          font-family="'Roboto','DejaVu Sans',sans-serif" font-size="62"
          font-weight="700" letter-spacing="6">R75/6</text>
    <text x="240" y="366" text-anchor="middle" fill="#ffffff" opacity="0.6"
          font-family="'Roboto','DejaVu Sans',sans-serif" font-size="19"
          font-weight="500" letter-spacing="13">AIRHEAD</text>
  </g>
</svg>
